# xmcd
#
# Track frame offsets:
#	150
#	12246
#	27886
#	45583
#	58750
#	74206
#	91197
#	109218
#	127044
#	138391
#	153328
#	170299
#	183491
#	200134
#
# Disc length: 2853 seconds
#
# Revision: 2
# Processed by: cddbd v1.5.2PL0 Copyright (c) Steve Scherf et al.
# Submitted via: audiograbber 1.83.01
#
DISCID=c90b230e
DTITLE=Various Artist - Swing Time Boogie
DYEAR=1998
DGENRE=Blues
TTITLE0=Kevin McKendree Express - Drivin' With Judy (130 bpm)
TTITLE1=Bobby Gilmore with Connie Ethridge - Swing Time Boogie (120 bpm)
TTITLE2=Big Joe Maher - Sweet Home Chicago (106 bpm)
TTITLE3=Johnny Ferreira and The Swing Machine with Linda Rhyne - Yes Indeed (108 
TTITLE3=bpm)
TTITLE4=Big Joe Maher - Blue Monday Blues (123 bpm)
TTITLE5=Broadwalk Boys - Tainted Love (130 bpm)
TTITLE6=Zippy Putnam - The Cool Dude (120 bpm)
TTITLE7=Bobby Gilmore - Wrong Turn Blues (132 bpm)
TTITLE8=Big Bad Smitty - Feel Like Love (120 bpm)
TTITLE9=Kid Ramos - Everything I Do Is Wrong (108 bpm)
TTITLE10=Cathy Ponton King - Soul Touch (118 bpm)
TTITLE11=Billy Scott - Hey Hey The Blues Is All Right (130 bpm)
TTITLE12=Big Joe Maher - Oye Como Va (120 bpm)
TTITLE13=Joey DeFrancesco - How Little We Know (121 bpm)
EXTD=
EXTT0=
EXTT1=
EXTT2=
EXTT3=
EXTT4=
EXTT5=
EXTT6=
EXTT7=
EXTT8=
EXTT9=
EXTT10=
EXTT11=
EXTT12=
EXTT13=
PLAYORDER=
